<?xml version="1.0" encoding="utf-8"?>
<!-- Generator: Adobe Illustrator 21.1.0, SVG Export Plug-In . SVG Version: 6.00 Build 0)  -->
<svg version="1.1" xmlns="http://www.w3.org/2000/svg" xmlns:xlink="http://www.w3.org/1999/xlink" x="0px" y="0px"
	 viewBox="0 0 50 46.7" style="enable-background:new 0 0 50 46.7;" xml:space="preserve">
<style type="text/css">
	.st0{fill:#FFFFFF;}
	.st1{fill:none;stroke:#000000;stroke-miterlimit:10;}
	.st2{fill:#808080;}
	.st3{fill:#FF0000;}
	.st4{fill:#E9E9E9;}
	.st5{fill:url(#SVGID_1_);}
	.st6{fill:url(#SVGID_2_);}
	.st7{fill:url(#SVGID_3_);}
	.st8{fill:url(#SVGID_4_);}
	.st9{fill:#00414F;}
	.st10{fill:url(#SVGID_5_);}
	.st11{fill:url(#SVGID_6_);}
	.st12{fill:#E7463A;}
	.st13{fill:none;stroke:#00515E;stroke-miterlimit:10;}
	.st14{fill:#333333;}
	.st15{fill:#E13240;}
	.st16{fill:#0086A1;}
	.st17{fill:#E6E6E6;}
	.st18{fill:#F6F6F6;}
	.st19{fill:none;stroke:#E6E6E6;stroke-miterlimit:10;}
	.st20{fill:#FF6660;}
	.st21{fill:#FFFFFF;stroke:#B3B3B3;stroke-miterlimit:10;}
	.st22{fill:#4D4D4D;}
	.st23{fill:#666666;}
	.st24{fill:#C43041;}
	.st25{display:none;}
	.st26{display:inline;fill:#C43041;}
	.st27{display:inline;fill:#E7463A;}
	.st28{fill:#00515E;}
	.st29{fill:url(#SVGID_8_);}
	.st30{fill:url(#SVGID_9_);}
	.st31{fill:url(#SVGID_10_);}
	.st32{fill:url(#SVGID_11_);}
	.st33{fill:url(#SVGID_13_);}
	.st34{fill:url(#SVGID_14_);}
	.st35{opacity:0.9;}
	.st36{fill:none;stroke:#FFFFFF;stroke-width:2;stroke-linecap:round;stroke-miterlimit:10;}
	.st37{fill:none;stroke:#FFFFFF;stroke-miterlimit:10;}
	.st38{fill:#B3B3B3;}
	.st39{fill:#F2F2F2;}
	.st40{fill:none;stroke:#808080;stroke-width:2;stroke-miterlimit:10;}
	.st41{fill:#999999;}
	.st42{fill:url(#SVGID_17_);}
	.st43{fill:url(#SVGID_18_);}
	.st44{fill:none;stroke:#0086A1;stroke-miterlimit:10;}
	.st45{fill:#FF6760;}
	.st46{fill:url(#SVGID_21_);}
	.st47{fill:url(#SVGID_22_);}
	.st48{fill:none;stroke:#B3B3B3;stroke-miterlimit:10;}
	.st49{fill:url(#SVGID_23_);}
</style>
<g id="圖層_1">
	<g>
		<g>
			<path class="st2" d="M44.1,43.8c0,1.6,1.3,2.9,2.9,2.9c1.6,0,2.9-1.3,2.9-2.9c0-1.6-1.3-2.9-2.9-2.9
				C45.4,40.8,44.1,42.2,44.1,43.8L44.1,43.8z M44.1,43.8"/>
			<path class="st2" d="M0,43.8c0,1.6,1.3,2.9,2.9,2.9c1.6,0,2.9-1.3,2.9-2.9c0-1.6-1.3-2.9-2.9-2.9C1.3,40.8,0,42.2,0,43.8L0,43.8z
				 M0,43.8"/>
			<path class="st20" d="M22.1,43.8c0,1.6,1.3,2.9,2.9,2.9c1.6,0,2.9-1.3,2.9-2.9c0-1.6-1.3-2.9-2.9-2.9
				C23.4,40.8,22.1,42.2,22.1,43.8L22.1,43.8z M22.1,43.8"/>
			<path class="st2" d="M2.9,37.2c0.7,0,0.8,0.1,1.4,0.3v-3.3h19.4v3.2c0.6-0.2,0.7-0.2,1.3-0.2c0.6,0,0.7,0.1,1.3,0.2v-3.2h19.4
				v3.3c0.6-0.2,0.8-0.3,1.4-0.3c0.6,0,0.6,0.1,1.2,0.2v-4c0-1-0.8-1.8-1.8-1.8H26.3v-6c-0.6,0.1-0.7,0.1-1.3,0.1
				c-0.6,0-0.7,0-1.3-0.1v6H3.5c-1,0-1.7,0.8-1.7,1.8v4C2.3,37.3,2.3,37.2,2.9,37.2L2.9,37.2z M2.9,37.2"/>
			<g>
				<rect x="10.6" y="-0.1" class="st20" width="28.8" height="23"/>
				<rect x="13.9" y="3.6" class="st0" width="22.2" height="3.2"/>
			</g>
		</g>
	</g>
</g>
<g id="浮動層">
</g>
</svg>
